Coordinates
version=1
nRows=9
nColumns=42
inDegrees=yes

Units are S.I. units (second, meters, Newtons, ...)
If the header above contains a line with 'inDegrees', this indicates whether rotational values are in degrees (yes) or radians (no).

endheader
time	pelvis_tilt	pelvis_list	pelvis_rotation	pelvis_tx	pelvis_ty	pelvis_tz	hip_flexion_r	hip_adduction_r	hip_rotation_r	knee_angle_r	knee_adduction_r	knee_angle_r_beta	ankle_angle_r	subtalar_angle_r	mtp_angle_r	hip_flexion_l	hip_adduction_l	hip_rotation_l	knee_angle_l	knee_adduction_l	knee_angle_l_beta	ankle_angle_l	subtalar_angle_l	mtp_angle_l	lumbar_extension	lumbar_bending	lumbar_rotation	arm_flex_r	arm_add_r	arm_rot_r	elbow_flex_r	pro_sup_r	wrist_flex_r	wrist_dev_r	arm_flex_l	arm_add_l	arm_rot_l	elbow_flex_l	pro_sup_l	wrist_flex_l	wrist_dev_l
      0.00000000	     11.24170822	      5.40530355	     -1.62009287	     -1.11236446	      0.88946868	     -0.32822280	     -3.54365773	     -8.70559943	      0.05155828	     71.78595178	      0.28165750	      1.25290122	     10.95372274	    -16.19551618	     -9.72698364	     -7.10520968	      6.73876090	     -9.36972924	     15.30784449	      4.80178439	      0.26717229	     15.97391546	     -8.08548764	     -9.72698364	    -22.29486416	     -8.84377529	     -1.85869012	     -5.70160509	     -2.44046920	    -20.48776659	     38.02935060	     90.00000001	      0.00000000	      0.00000000	     -2.19589410	     -5.54373712	    -23.32706681	     35.94739784	     90.00000001	      0.00000000	      0.00000000
      0.01000000	     11.09482924	      5.08861209	     -1.48920132	     -1.10230304	      0.89024361	     -0.32925991	     -1.68196130	     -8.31713651	      0.20651074	     71.68775611	      0.21595047	      1.25118738	     12.00471117	    -16.39295174	     -9.69338669	     -8.07061722	      6.50233112	     -9.54546263	     14.54555765	      4.74704451	      0.25386787	     16.17691439	     -7.68514131	     -9.69338669	    -22.21495858	     -8.39494867	     -2.24732278	     -5.91341927	     -2.53254784	    -20.60717752	     37.95465584	     90.00000001	      0.00000000	      0.00000000	     -1.83172536	     -5.47704044	    -22.94232162	     36.31411911	     90.00000001	      0.00000000	      0.00000000
      0.02000000	     11.24222801	      4.59031351	     -1.36796821	     -1.09207524	      0.89135070	     -0.32994849	     -0.34612451	     -7.66330702	      1.00628843	     71.04105735	      0.76128967	      1.23990035	     12.58191795	    -16.92023900	     -9.59995020	     -9.73118413	      5.97544158	     -8.94348970	     13.03114912	      5.13942170	      0.22743646	     16.27547176	     -7.45213128	     -9.59995020	    -22.43475476	     -7.78503908	     -2.50833064	     -6.01731712	     -2.48257639	    -21.33945571	     37.75949815	     90.00000001	      0.00000000	      0.00000000	     -1.57590601	     -5.64488905	    -21.49648443	     36.88306288	     90.00000001	      0.00000000	      0.00000000
      0.03000000	     11.23037427	      4.20152832	     -1.15415917	     -1.08196953	      0.89203697	     -0.33069887	      1.13961251	     -7.12996393	      1.18332852	     70.16303056	      0.80324879	      1.22457590	     13.25530449	    -17.08625205	     -9.45550015	    -11.10737839	      5.58332323	     -8.43546697	     11.72234920	      5.35663240	      0.20459359	     16.08377013	     -7.62081400	     -9.45550015	    -22.50172431	     -7.27289712	     -2.88091709	     -6.14132570	     -2.40813905	    -22.07410097	     37.62638475	     90.00000001	      0.00000000	      0.00000000	     -1.29631097	     -5.80846824	    -20.27729654	     37.48871786	     90.00000001	      0.00000000	      0.00000000
      0.04000000	     10.93670164	      4.00087494	     -0.91879191	     -1.07211026	      0.89207231	     -0.33165400	      2.95774704	     -6.87913397	      1.25022358	     69.16285528	      0.80764973	      1.20711954	     13.85531499	    -17.00916793	     -9.42448070	    -11.87764465	      5.42962503	     -8.64131635	     11.01343279	      5.27117635	      0.19222066	     16.24647856	     -7.11393590	     -9.42448070	    -22.28606442	     -6.92733175	     -3.38296168	     -6.31075130	     -2.42890803	    -22.19416269	     37.55146200	     90.00000001	      0.00000000	      0.00000000	     -0.91471303	     -5.85834540	    -19.99020676	     37.92623032	     90.00000001	      0.00000000	      0.00000000
      0.05000000	     11.00915097	      3.55890009	     -0.71257544	     -1.06191209	      0.89248566	     -0.33207377	      4.14218457	     -6.26740928	      1.70658925	     67.65850617	      1.19166326	      1.18086370	     14.13055607	    -17.25895884	     -9.35782347	    -13.47094338	      4.92214625	     -8.19641700	      9.44711386	      5.48518880	      0.16488324	     16.39693550	     -6.08270056	     -9.35782347	    -22.42755270	     -6.40838921	     -3.76124773	     -6.33066531	     -2.34196389	    -22.88174372	     37.27037594	     90.00000001	      0.00000000	      0.00000000	     -0.65221806	     -6.03384409	    -18.91086925	     38.58045238	     90.00000001	      0.00000000	      0.00000000
      0.06000000	     11.03187795	      3.22753763	     -0.43428015	     -1.05175951	      0.89256859	     -0.33265603	      5.32397571	     -5.81075260	      1.78097451	     65.93261285	      1.27883581	      1.15074118	     14.34922278	    -17.26372985	     -9.27885615	    -14.84190670	      4.51785897	     -8.18804578	      8.25798570	      5.59698402	      0.14412904	     16.41833584	     -5.29928972	     -9.27885615	    -22.52283212	     -5.95890593	     -4.20316467	     -6.40328908	     -2.22750190	    -23.62289496	     37.10772901	     90.00000001	      0.00000000	      0.00000000	     -0.30868128	     -6.20728113	    -17.94736802	     39.14033896	     90.00000001	      0.00000000	      0.00000000
      0.07000000	     10.87400199	      3.00598039	     -0.20725891	     -1.04174225	      0.89217746	     -0.33315276	      6.71385020	     -5.49790674	      1.88232003	     64.11135624	      1.37987055	      1.11895425	     14.49432676	    -17.16712591	     -9.22370736	    -15.98340089	      4.22562103	     -8.34111976	      7.10670818	      5.71375136	      0.12403546	     16.49470019	     -4.23899945	     -9.22370736	    -22.43131851	     -5.65258674	     -4.64310597	     -6.45027207	     -2.14328288	    -24.09730890	     36.89045172	     90.00000001	      0.00000000	      0.00000000	      0.08750861	     -6.32507909	    -17.37078627	     39.64451749	     90.00000001	      0.00000000	      0.00000000
      0.08000000	     10.84792466	      2.78141857	      0.02407189	     -1.03157807	      0.89172759	     -0.33360966	      7.82513479	     -5.18523348	      1.94756488	     61.99381485	      1.48629634	      1.08199618	     14.50616684	    -17.05981971	     -9.17005079	    -17.29912518	      3.91421871	     -8.70162411	      5.92395971	      5.84222188	      0.10339260	     16.57526460	     -2.98702949	     -9.17005079	    -22.46659513	     -5.34623130	     -5.06454514	     -6.50175337	     -2.04100613	    -24.69705009	     36.66377808	     90.00000001	      0.00000000	      0.00000000	      0.48936273	     -6.45118314	    -16.74156403	     40.15801047	     90.00000001	      0.00000000	      0.00000000
